@startuml

title UML-діаграма розгортання ПП

left to right direction

skinparam componentStyle uml1

node "<<Web-page>>" as wp {
	node "<<Windows OS>>" as w1 {
		component [*.php \n*.html]
	}
}

interface Keyboard

interface Mouse

Keyboard -- wp

Mouse -- wp

node "<<Server 1>>" as serv1 {
	node "<<Windows OS>>" as w2 {
	  node "<<Node.js>>"{
	    component [*.js]
	  }
	}
}

node "<<Server 2>>" as serv2 {
	node "<<Windows OS>>" as w3 {
	  node "<<DataBase Server MySQL>>"{
	    component [Relation Database]
	  }
	}
}

wp -- serv1
serv1 -- serv2

@enduml
